<?xml version="1.0" standalone="no"?>
<!DOCTYPE svg PUBLIC "-//W3C//DTD SVG 20010904//EN"
 "http://www.w3.org/TR/2001/REC-SVG-20010904/DTD/svg10.dtd">
<svg version="1.0" xmlns="http://www.w3.org/2000/svg"
 width="148.000000pt" height="148.000000pt" viewBox="0 0 148.000000 148.000000"
 preserveAspectRatio="xMidYMid meet">
<metadata>
Created by potrace 1.14, written by Peter Selinger 2001-2017
</metadata>
<g transform="translate(0.000000,148.000000) scale(0.100000,-0.100000)"
fill="#000000" stroke="none">
<path d="M200 775 c0 -165 2 -195 15 -195 12 0 15 28 17 167 l3 168 75 -127
c41 -70 80 -128 85 -128 6 0 44 58 85 128 l75 127 3 -168 c2 -139 5 -167 17
-167 13 0 15 30 15 195 0 247 -4 250 -109 70 -40 -69 -76 -127 -81 -130 -4 -3
-43 54 -85 125 -56 93 -83 130 -96 130 -18 0 -19 -11 -19 -195z"/>
<path d="M805 748 c-54 -123 -100 -226 -102 -230 -2 -5 2 -8 10 -8 8 0 52 86
112 223 54 122 100 225 102 230 2 4 -2 7 -10 7 -8 0 -52 -86 -112 -222z"/>
<path d="M1260 848 c0 -68 -5 -139 -10 -159 -15 -53 -50 -81 -110 -87 -61 -6
-103 10 -131 50 -14 20 -25 26 -31 20 -18 -18 28 -69 77 -88 80 -30 159 -8
209 60 19 24 21 44 24 177 3 130 1 149 -12 149 -14 0 -16 -18 -16 -122z"/>
</g>
</svg>
